<svg width="102" height="83" viewBox="0 0 102 83" fill="none" xmlns="http://www.w3.org/2000/svg">
<path d="M59.8942 34.6229C59.4097 35.3747 59.6551 38.3053 57.9008 38.3053C56.7519 38.3053 55.7957 37.5033 54.7932 38.3053L53.8795 39.391M50.3323 34.6964C51.1676 34.1116 51.3274 34.9889 53.891 33.4935C54.4925 33.1426 56.3995 35.1163 56.5976 35.1475C57.5499 35.2979 58.4072 34.3385 58.7915 34.2382M50.9222 28.3699C51.7074 28.4367 53.2776 30.6743 53.891 30.9372C54.5927 31.238 55.4448 30.4861 56.5976 31.0876L58.0512 31.8896M55.1827 22.9606C55.45 23.228 56.0563 24.5015 55.6954 25.8247C55.2443 27.4788 55.9961 27.9299 56.2468 28.0301C56.4974 28.1304 58.1013 28.4311 58.5524 29.4837C58.8822 30.2533 58.6193 30.6198 58.803 30.6866M59.2426 20.7496C59.0588 21.3177 58.7028 22.1658 58.4522 23.068C58.3383 23.4778 57.8006 24.3712 58.8531 25.0228C59.9057 25.6744 60.0561 26.8773 60.0561 27.2282L60.0446 29.9277M63.9541 20.2287C63.4362 20.8135 62.462 21.7648 62.1612 22.3663C62.061 22.5668 61.6942 24.4858 61.9106 24.9726C62.1111 25.4238 62.2615 26.9274 62.061 27.579C61.9873 27.8185 61.324 29.5745 61.4242 29.6747M68.7158 21.6157C67.7301 22.0333 65.8703 23.2184 65.5696 23.6695C65.2039 24.218 65.2688 26.3259 65.0684 26.7269C64.8782 27.1074 64.0158 27.98 63.715 28.4812C63.4844 28.8657 63.3141 29.5672 63.0634 29.7844M64.6672 30.2147C65.3689 30.0978 66.8728 29.5238 67.2738 28.6817C67.775 27.6291 68.2399 26.11 68.7774 25.8749C69.5794 25.524 70.6099 25.51 70.8826 25.3736C71.0831 25.2734 72.0573 24.6322 72.475 24.3147M66.8237 32.2834C67.7927 31.5985 69.924 29.5825 70.4816 29.3834C71.1833 29.1328 73.1381 29.2331 73.6393 29.3834C74.0403 29.5037 75.1663 29.0095 75.5673 28.7756M67.2737 34.4888C68.0589 34.2717 70.2711 33.8243 70.8325 33.7441C71.5342 33.6439 72.5366 32.2906 73.3887 32.8419C74.2408 33.3933 75.4939 34.5962 76.1455 34.3456C76.6668 34.1451 77.0644 34.1117 77.0978 34.0448M66.8409 36.8446C67.4424 36.2934 69.3978 37.3683 69.7799 37.4532C70.231 37.5534 71.1332 37.1525 72.4364 37.2026C73.7396 37.2527 74.3021 39.4754 74.4914 39.5583C75.2934 39.9092 76.1377 39.8152 76.7057 39.8653M65.5079 39.2505C66.3433 39.6348 68.1875 40.7671 68.4767 40.9117C68.8777 41.1122 70.3312 41.2124 70.7322 41.463C71.0749 41.6771 71.4266 43.6092 71.8349 44.1195C72.2359 44.6207 73.6021 45.2326 74.4542 45.4164M63.7536 40.5914C64.7227 41.5605 66.7525 44.2899 67.2738 45.3726C67.9253 46.7259 66.0708 49.1819 68.2261 49.6831C69.9503 50.0841 70.0806 50.3681 69.9804 50.4851M60.3453 41.001C61.2809 42.3877 61.8705 45.6132 61.5096 46.375C61.0585 47.3274 64.116 48.1795 63.7652 49.9338C63.4313 51.6026 64.517 52.7907 63.5647 53.5927M57.4382 40.7049C57.8559 42.1752 58.1514 45.6332 57.149 46.6758C56.4806 47.2271 55.545 48.5303 57.149 49.3323C58.7529 50.1342 56.9317 52.6738 55.7957 53.7932M54.2303 39.5909C54.2804 39.6912 53.7406 44.0193 52.3873 45.4227C51.034 46.8261 48.7785 45.4227 48.5279 48.4301C48.3274 50.836 48.344 51.9635 48.3775 52.1139M40.809 46.8763C41.1097 46.776 41.8114 44.2699 44.2674 44.0694C46.7234 43.8689 48.3775 43.518 49.0291 40.9618C49.5504 38.9168 51.4517 38.2384 52.3372 38.1549M36.0441 38.8566C36.3448 38.8566 37.8016 36.4006 40.9092 38.3554C43.3953 39.9192 45.7878 37.236 46.6733 35.6989C47.5087 34.4458 49.3499 32.6615 50.4325 34.9471M34.3459 30.7046C34.6968 29.5518 35.6162 27.2582 37.7014 28.782C40.3077 30.6866 39.4055 32.0901 43.5156 30.9874C46.8036 30.1052 49.2296 30.9874 50.0315 31.5387M42.8286 10.8428C43.3131 10.9431 44.2374 11.4094 44.7185 11.6901C45.32 12.041 45.9215 14.1963 45.5205 15.6999C45.1997 16.9029 48.4276 18.2395 50.0817 18.7574C51.1008 19.1417 53.1592 20.3112 53.2394 21.9152C53.3196 23.5191 54.5311 23.1611 55.2328 22.9606M61.3979 1.20815C63.0853 2.16048 65.2187 4.51253 63.0133 6.27685C60.2566 8.48225 60.9082 10.437 62.1111 12.442C63.0735 14.0459 62.5121 16.4852 62.1111 17.5044C61.8772 18.2896 61.7402 19.9604 63.2639 20.1609M27.8594 74.9234C26.6397 72.7682 24.9501 68.1082 26.8748 67.2261C29.2807 66.1234 31.9372 69.0806 33.7417 66.7249C35.5461 64.3691 39.4556 62.7652 37.551 58.9558C35.6463 55.1465 39.5408 53.2418 40.9593 53.2418C42.1623 53.2418 43.8163 50.9863 43.4153 49.2822M13.8931 62.3642C14.4611 60.827 15.9982 57.4923 17.4017 56.8507C19.156 56.0487 23.1156 58.9057 25.0203 56.8507C26.925 54.7957 28.3785 54.0438 29.2306 50.8861C30.0827 47.7283 35.496 46.2748 36.8994 46.6758C38.0221 46.9966 39.8231 46.7593 40.5583 46.6257M4.72772 47.9187C5.54639 46.9497 7.32696 44.8112 7.72794 44.1696C8.22917 43.3677 11.4872 42.3151 12.5398 43.5682C13.5923 44.8212 18.6547 46.1745 20.7599 43.8188C22.865 41.463 27.6267 37.7038 30.634 39.007C31.4025 39.5416 33.9121 40.3002 36.5987 40.2601M34.293 28.2814H1.4125C-0.0577658 34.4465 1.59294 51.1975 19.9579 68.8808C38.3229 86.5641 63.9323 82.3638 74.4413 78.0533C80.1052 75.5305 92.686 67.5576 97.6982 55.8489C102.71 44.1403 100.923 31.5562 99.4024 26.7276C98.2328 21.9827 93.5481 11.1696 84.1651 5.87662C73.7067 -0.0230073 62.0725 0.229111 55.3445 2.46122C54.5892 2.71183 53.8679 2.98776 53.2279 3.31331C47.4136 6.27055 38.3028 12.5429 35.095 24.1213C34.8236 24.9567 34.2833 26.9582 34.293 28.2814ZM34.293 28.2814C34.0424 37.8048 39.2251 56.179 62.7627 53.6929C67.8752 53.1529 76.8873 47.3173 77.2482 35.6488C77.1145 30.7869 74.0303 20.8726 62.7627 20.1107C59.3042 20.1107 53.9912 22.2961 50.9839 28.2306C48.8286 32.9923 49.825 41.7139 62.3617 40.9618C67.374 40.661 70.632 29.4946 61.5096 29.6722C58.9366 29.7224 56.8482 32.0399 58.5524 34.0448C59.1649 34.7654 62.5614 34.7601 62.5614 32.3542M1.06162 30.7367C1.36236 31.0041 2.45503 31.0976 4.41984 29.3333C6.38465 27.569 8.91418 28.5982 9.93334 29.3333C11.4621 30.436 13.5222 33.9145 17.6523 32.3908C20.1083 30.9039 25.311 28.2106 26.4739 29.3333C27.2925 30.5696 30.4536 32.9421 34.5436 32.9421M53.761 53.565C53.1595 53.966 43.9667 59.4571 47.1244 66.775C50.2822 74.0929 42.2625 72.4388 41.9618 72.6393C41.661 72.8398 34.3933 72.5892 42.864 80.7091M60.8079 53.8433C58.1848 56.316 53.9311 62.4143 57.9008 67.0256C61.8705 71.6369 57.5166 74.1263 54.8433 74.7946C53.0556 75.5297 51.1027 78.1521 57.8392 81.6808M66.8226 52.4399C65.4861 54.9627 64.1762 61.3818 69.6295 65.6723C75.0829 69.9628 71.9018 74.2433 69.6295 75.8472C68.8777 76.4653 68.395 78.3457 72.7256 78.7066M72.2359 48.3799C71.9853 51.0698 73.3987 57.382 80.2555 60.3091C88.8265 63.9681 80.8069 67.0256 82.9622 69.1307C84.6864 70.8149 86.359 69.5755 86.76 69.9765M75.6442 43.2674C77.2314 44.4704 80.2856 47.2472 79.8044 48.7308C79.203 50.5853 79.0526 52.9912 82.6113 52.2895C86.17 51.5878 88.1749 49.2821 90.0796 53.6428C91.6033 57.1314 95.062 58.3225 96.4654 58.3893M77.3484 36.15C78.9356 38.489 83.2028 42.7562 87.5735 41.1122C91.9442 39.4681 93.6049 42.3317 93.8889 43.9691C94.223 45.5897 96.3434 47.9117 100.754 43.6613M76.346 30.5864C78.5012 31.8896 83.724 33.8343 86.571 31.5888C90.1297 28.782 92.3852 29.8847 92.9867 30.7367C93.5882 31.5888 97.7716 33.2859 100.178 29.8274M73.8398 25.8749C75.828 26.1087 80.4059 25.9851 82.8118 23.6193C85.8192 20.6621 86.4708 19.409 90.5808 21.2134C93.8689 22.657 94.7234 18.2981 94.5562 15.9757M71.0716 23.0601C72.759 22.3751 76.4262 20.1107 77.1479 17.5044C78.0501 14.2464 79.5037 12.0911 80.8069 12.0911C82.1101 12.0911 88.2349 10.9052 84.8767 6.29389M73.6278 1.89197C74.7806 2.82759 76.3159 5.13406 74.9927 6.57759C73.3386 8.38201 73.3887 6.52747 71.2334 7.52992C69.5092 8.33188 69.713 12.0744 70.0305 13.8454C70.6988 16.4183 70.2811 18.4567 67.775 21.1633M50.6963 4.70859C52.8014 4.82554 55.6653 5.77563 54.3421 7.78053C52.688 10.2867 50.633 12.1914 55.3445 14.6975C60.0561 17.2036 56.5861 20.0535 58.0396 21.2063M36.6551 19.8037C36.8556 19.8037 38.9043 20.211 39.4055 20.7623C39.9068 21.3137 40.7143 23.8319 42.5131 24.1206C46.5731 24.7722 46.0718 27.579 49.9313 25.9751C50.5167 25.7318 51.177 26.6196 51.9455 26.5695M61.4142 34.2661C61.4142 35.0179 60.9583 36.0498 62.5121 38.0045C63.6675 39.4581 61.0971 41.0064 61.0971 41.0064M62.7626 33.0152C62.7626 33.2367 62.6107 33.4186 62.3616 33.4186C62.1125 33.4186 62.0108 33.2391 62.0108 33.0176C62.0108 32.7962 62.1626 32.7646 62.4118 32.7646C62.6609 32.7646 62.7626 32.7937 62.7626 33.0152Z" stroke="white" stroke-width="1.52947"/>
</svg>
